<svg width="96" height="96" viewBox="0 0 96 96" xmlns="http://www.w3.org/2000/svg">
  <rect width="96" height="96" rx="16" fill="#fff6ec"/>
  <g transform="translate(16 10)">
    <path
      d="M32 12c-6 6-10 16-10 27 0 12 4.5 23 10 29 5.5-6 10-17 10-29 0-11-4-21-10-27Z"
      fill="#f58220"
    />
    <path
      d="M14 26c-3.5 6.5-4 17 2 25 5.8 7.6 16 11.2 16 11.2s1-19.3-5.6-27.6C21.4 27.2 16.6 26 14 26Zm36 0c-2.7 0-7.5 1.2-12.4 8.6C31 42.9 32 62.2 32 62.2s10.2-3.6 16-11.2c6-7.8 5.5-18.5 2-25Z"
      fill="#f25a14"
    />
    <path
      d="M32 64s-7 5-7 10h14c0-5-7-10-7-10Z"
      fill="#0f793a"
    />
    <path
      d="M32 52c-4 5-10 10-18 12 6 2 12 1 16-1.4V64h4v-1.4c4 2.4 10 3.4 16 1.4-8-2-14-7-18-12Z"
      fill="#1b5e20"
    />
  </g>
</svg>
